<svg enable-background="new 0 0 512 512" height="512" viewBox="0 0 512 512" width="512" xmlns="http://www.w3.org/2000/svg"><path d="m227.593 217.991 19.188 60.091h-62.627l18.825-60.091c4.346-14.48 7.964-31.493 11.582-45.611h.724c3.621 14.119 7.601 30.769 12.308 45.611zm283.907-132.324v340.667c0 46.842-38.325 85.167-85.167 85.167h-340.666c-46.842-.001-85.167-38.326-85.167-85.168v-340.666c0-46.842 38.325-85.167 85.167-85.167h340.667c46.841 0 85.166 38.325 85.166 85.167zm-187.254 295.218-79.279-243.977h-56.83l-78.189 243.977h45.973l20.997-69.14h77.465l22.082 69.14zm75.274-176.288h-44.888v176.288h44.888zm2.532-49.229c-.362-13.756-9.772-24.252-24.977-24.252-14.842 0-24.976 10.496-24.976 24.252 0 13.395 9.772 23.891 24.614 23.891 15.566-.001 25.339-10.497 25.339-23.891z"/></svg>